<svg width="1328" height="1836" viewBox="0 0 1328 1836" fill="none" xmlns="http://www.w3.org/2000/svg">
<path opacity="0.0144928" d="M643.122 544.654C513.698 584.311 426.137 704.828 428.416 840.172C429.763 920.212 462.655 996.484 519.938 1052.4L671.148 1200.01C739.742 1266.97 827.448 1310.96 922.136 1325.9L1047.13 1345.62C1142.11 1360.6 1237.46 1321.07 1293.98 1243.28C1350.49 1165.5 1358.62 1062.59 1315.02 976.895L1257.64 864.112C1214.18 778.674 1145.24 708.855 1060.36 664.31L873.247 566.114C802.364 528.914 719.661 521.202 643.122 544.654Z" stroke="url(#paint0_linear_0_387)" stroke-width="2"/>
<path opacity="0.0289855" d="M681.45 520.273C551.204 553.055 458.227 667.871 453.242 802.086C450.282 881.788 478.953 959.428 533.003 1018.08L674.142 1171.23C738.763 1241.34 823.631 1289.58 916.941 1309.22L1038.91 1334.9C1132.5 1354.6 1229.24 1320.23 1289.43 1245.91C1349.61 1171.58 1363.11 1069.82 1324.39 982.37L1273.91 868.399C1235.3 781.213 1170.47 708.228 1088.45 659.598L909.304 553.384C840.699 512.709 758.794 500.807 681.45 520.273Z" stroke="url(#paint1_linear_0_387)" stroke-width="2"/>
<path opacity="0.0434783" d="M720.025 497.213C589.319 523.141 491.282 632.022 479.159 764.721C471.929 843.854 496.326 922.631 547.015 983.826L677.925 1141.87C738.43 1214.92 820.257 1267.22 911.958 1291.46L1030.63 1322.84C1122.6 1347.15 1220.44 1317.99 1284.1 1247.3C1347.75 1176.61 1366.52 1076.25 1332.73 987.328L1289.12 872.581C1255.42 783.917 1194.85 708.006 1115.88 655.467L945.022 541.795C878.863 497.78 797.968 481.751 720.025 497.213Z" stroke="url(#paint2_linear_0_387)" stroke-width="2"/>
<path opacity="0.057971" d="M758.776 475.474C627.97 494.59 525.236 597.324 506.12 728.13C494.672 806.467 514.755 886.146 561.965 949.698L682.526 1111.99C738.787 1187.73 817.382 1243.91 907.248 1272.64L1022.37 1309.45C1112.49 1338.26 1211.16 1314.32 1278.07 1247.42C1344.97 1180.52 1368.91 1081.85 1340.09 991.723L1303.29 876.602C1274.56 786.735 1218.37 708.141 1142.64 651.879L980.344 531.319C916.792 484.109 837.113 464.026 758.776 475.474Z" stroke="url(#paint3_linear_0_387)" stroke-width="2"/>
<path opacity="0.0724638" d="M797.629 455.056C667.075 467.42 560.017 563.815 534.074 692.362C518.471 769.678 534.212 850.026 577.835 915.74L687.966 1081.64C739.868 1159.82 815.05 1219.7 902.865 1252.79L1014.19 1294.74C1102.25 1327.92 1201.47 1309.22 1271.41 1246.25C1341.34 1183.28 1370.32 1086.56 1346.52 995.51L1316.44 880.407C1292.7 789.614 1241.02 708.586 1168.69 648.795L1015.21 521.927C954.416 471.673 876.153 447.62 797.629 455.056Z" stroke="url(#paint4_linear_0_387)" stroke-width="2"/>
<path opacity="0.0869565" d="M836.508 435.952C706.552 441.642 595.549 531.53 562.965 657.463C543.281 733.54 554.664 814.322 594.605 881.997L694.265 1050.86C741.707 1131.24 813.305 1194.6 898.861 1231.92L1006.18 1278.72C1091.97 1316.14 1191.46 1302.66 1264.2 1243.76C1336.93 1184.86 1370.81 1090.34 1352.04 998.645L1328.57 883.945C1309.86 792.5 1262.77 709.292 1194.01 646.174L1049.56 513.585C991.665 460.446 915.015 432.516 836.508 435.952Z" stroke="url(#paint5_linear_0_387)" stroke-width="2"/>
<path opacity="0.101449" d="M875.343 418.152C746.324 417.263 631.762 500.496 592.739 623.476C569.061 698.099 576.084 779.081 612.257 848.512L701.443 1019.7C744.337 1102.03 812.195 1168.67 895.291 1210.06L998.393 1261.43C1081.71 1302.93 1181.2 1294.65 1256.51 1239.93C1331.82 1185.22 1370.44 1093.16 1356.72 1001.09L1339.73 887.162C1326.04 795.341 1283.63 710.211 1218.58 643.975L1083.33 506.255C1028.48 450.397 953.631 418.692 875.343 418.152Z" stroke="url(#paint6_linear_0_387)" stroke-width="2"/>
<path opacity="0.115942" d="M914.062 401.642C786.31 394.286 668.579 470.741 623.338 590.44C595.762 663.401 598.436 744.348 630.767 815.329L709.512 988.213C747.785 1072.24 811.757 1141.94 892.203 1187.26L990.912 1242.87C1071.57 1288.31 1170.79 1285.18 1248.43 1234.76C1326.07 1184.34 1369.28 1094.97 1360.58 1002.8L1349.93 890.01C1341.24 798.086 1303.59 711.296 1242.4 642.155L1116.49 499.899C1064.79 441.493 991.931 406.126 914.062 401.642Z" stroke="url(#paint7_linear_0_387)" stroke-width="2"/>
<path opacity="0.130435" d="M952.598 386.403C826.435 372.71 705.928 442.285 654.705 558.392C623.34 629.487 621.687 710.168 650.112 782.488L718.49 956.453C752.082 1041.92 812.035 1114.45 889.648 1163.53L983.806 1223.08C1061.62 1272.28 1160.3 1274.27 1240.04 1228.24C1319.77 1182.2 1367.39 1095.75 1363.68 1003.76L1359.2 892.44C1355.5 800.685 1322.66 712.497 1265.44 640.673L1148.97 494.474C1100.55 433.697 1029.85 394.788 952.598 386.403Z" stroke="url(#paint8_linear_0_387)" stroke-width="2"/>
<path opacity="0.144928" d="M990.88 372.415C866.616 352.528 743.728 415.143 686.776 527.363C651.741 596.397 645.795 676.582 670.264 750.028L728.379 924.468C757.245 1011.11 813.059 1086.26 887.668 1138.93L977.136 1202.08C1051.93 1254.89 1149.82 1261.92 1231.4 1220.35C1312.98 1178.79 1364.82 1095.46 1366.07 1003.91L1367.56 894.407C1368.81 803.089 1340.82 713.766 1287.69 639.485L1180.72 489.935C1135.69 426.969 1067.32 384.648 990.88 372.415Z" stroke="url(#paint9_linear_0_387)" stroke-width="2"/>
<path opacity="0.15942" d="M1028.84 359.651C906.777 333.732 781.902 389.329 719.488 497.383C680.912 564.167 670.72 643.628 691.192 717.986L739.188 892.31C763.296 979.875 814.863 1057.39 886.306 1113.47L970.967 1179.92C1042.59 1236.14 1139.42 1248.14 1222.6 1211.11C1305.77 1174.08 1361.65 1094.08 1367.79 1003.25L1375.06 895.865C1381.19 805.249 1358.09 715.057 1309.15 638.549L1211.71 486.235C1170.15 421.266 1104.28 375.67 1028.84 359.651Z" stroke="url(#paint10_linear_0_387)" stroke-width="2"/>
<path opacity="0.173913" d="M1066.42 348.083C946.846 316.306 820.381 364.852 752.784 468.477C710.805 532.83 696.426 611.345 712.873 686.398L750.924 860.032C770.258 948.258 817.483 1027.92 885.609 1087.22L965.366 1156.64C1033.66 1216.08 1129.19 1232.96 1213.71 1200.51C1298.23 1168.07 1357.94 1091.6 1368.91 1001.73L1381.73 896.773C1392.68 807.12 1374.47 716.323 1329.8 637.821L1241.9 483.325C1203.9 416.544 1140.68 367.818 1066.42 348.083Z" stroke="url(#paint11_linear_0_387)" stroke-width="2"/>
<path opacity="0.188406" d="M1103.55 337.679C986.744 300.231 859.08 341.711 786.594 440.664C741.36 502.414 722.864 579.762 735.269 655.296L763.583 827.683C778.139 916.312 820.941 997.866 885.61 1060.2L960.384 1132.26C1025.21 1194.74 1119.19 1216.39 1204.81 1188.57C1290.43 1160.75 1353.74 1087.99 1369.46 999.345L1387.59 897.091C1403.28 808.654 1389.97 717.517 1349.65 637.258L1271.23 481.152C1236.87 412.752 1176.44 361.048 1103.55 337.679Z" stroke="url(#paint12_linear_0_387)" stroke-width="2"/>
<path opacity="0.202899" d="M1140.17 328.402C1026.4 285.485 897.926 319.909 820.854 413.963C772.521 472.946 749.99 548.914 758.349 624.711L777.162 795.314C786.952 884.09 825.262 967.298 886.346 1032.46L956.081 1106.84C1017.3 1172.15 1109.51 1198.46 1195.97 1175.29C1282.44 1152.12 1349.14 1083.24 1369.5 996.068L1392.7 896.78C1413.02 809.808 1404.6 718.593 1368.69 636.816L1299.68 479.662C1269.02 409.841 1211.52 355.317 1140.17 328.402Z" stroke="url(#paint13_linear_0_387)" stroke-width="2"/>
<path opacity="0.217391" d="M1176.23 320.215C1065.74 272.041 936.848 299.439 855.504 388.388C804.237 444.449 777.764 518.827 782.081 594.672L791.662 762.977C796.709 851.645 830.473 936.262 887.853 1004.05L952.512 1080.43C1010.02 1148.37 1100.21 1179.2 1187.27 1160.7C1274.34 1142.19 1344.19 1077.34 1369.09 991.884L1397.09 895.805C1421.94 810.541 1418.37 719.507 1386.92 636.452L1327.21 478.801C1300.31 407.757 1245.87 350.577 1176.23 320.215Z" stroke="url(#paint14_linear_0_387)" stroke-width="2"/>
<path opacity="0.231884" d="M1211.67 313.076C1104.7 259.87 975.767 280.291 890.474 363.949C836.445 416.943 806.133 489.528 806.427 565.207L807.069 730.722C807.412 819.029 836.588 904.809 890.159 975.012L949.724 1053.07C1003.41 1123.43 1091.37 1158.66 1178.78 1144.81C1266.19 1130.97 1338.96 1070.28 1368.27 986.779L1400.8 894.134C1430.06 810.812 1431.3 720.215 1404.34 636.124L1353.8 478.512C1330.69 406.445 1279.44 346.78 1211.67 313.076Z" stroke="url(#paint15_linear_0_387)" stroke-width="2"/>
<path opacity="0.246377" d="M1246.44 306.942C1143.22 248.937 1014.61 262.454 925.701 340.653C869.089 390.445 835.052 461.039 831.351 536.341L823.376 698.598C819.066 786.298 843.625 872.992 893.291 945.401L947.765 1024.82C997.536 1097.38 1083.05 1136.85 1170.56 1127.65C1258.07 1118.46 1333.51 1062.07 1367.11 980.744L1403.88 891.736C1437.41 810.583 1443.4 720.677 1420.95 635.79L1379.42 478.737C1360.14 405.849 1312.17 343.875 1246.44 306.942Z" stroke="url(#paint16_linear_0_387)" stroke-width="2"/>
<path opacity="0.26087" d="M1280.5 301.764C1181.22 239.205 1053.31 245.909 961.12 318.502C902.111 364.966 864.474 433.38 856.817 508.095L840.569 666.653C831.67 753.501 851.597 840.865 897.277 915.264L946.68 995.727C992.454 1070.28 1075.33 1113.83 1162.69 1109.26C1250.05 1104.68 1327.92 1052.7 1365.65 973.77L1406.37 888.583C1444.02 809.817 1454.71 720.849 1436.78 635.407L1404.04 479.416C1388.62 405.91 1344.04 341.806 1280.5 301.764Z" stroke="url(#paint17_linear_0_387)" stroke-width="2"/>
<path opacity="0.275362" d="M1313.78 297.495C1218.65 230.635 1091.8 230.635 996.664 297.495C935.45 340.518 894.346 406.568 882.786 480.49L858.631 634.935C845.219 720.694 860.513 808.481 902.135 884.651L946.507 965.854C988.212 1042.18 1068.25 1089.65 1155.22 1089.65C1242.19 1089.65 1322.23 1042.18 1363.94 965.854L1408.31 884.651C1449.93 808.48 1465.22 720.694 1451.81 634.935L1427.66 480.49C1416.1 406.568 1374.99 340.518 1313.78 297.495Z" stroke="url(#paint18_linear_0_387)" stroke-width="2"/>
<path opacity="0.289855" d="M1346.26 294.088C1255.45 223.186 1130 216.611 1032.28 277.633C969.054 317.11 924.626 380.623 909.222 453.549L877.549 603.495C859.714 687.93 870.384 775.897 907.89 853.619L947.287 935.262C984.864 1013.13 1061.89 1064.34 1148.23 1068.87C1234.58 1073.4 1316.53 1030.52 1362.04 956.998L1409.76 879.921C1455.18 806.545 1474.99 720.176 1466.07 634.339L1450.25 481.903C1442.55 407.766 1405.01 339.957 1346.26 294.088Z" stroke="url(#paint19_linear_0_387)" stroke-width="2"/>
<path opacity="0.304348" d="M1377.89 291.48C1291.56 216.804 1167.85 203.802 1067.89 258.898C1002.86 294.738 955.259 355.547 936.083 427.279L897.296 572.37C875.139 655.256 881.21 743.16 914.551 822.212L949.048 904.004C982.452 983.203 1056.29 1037.97 1141.77 1046.95C1227.25 1055.94 1310.86 1017.72 1360 947.197L1410.75 874.365C1459.8 803.972 1484.01 719.251 1479.57 633.57L1471.8 483.585C1467.96 409.434 1434.04 340.057 1377.89 291.48Z" stroke="url(#paint20_linear_0_387)" stroke-width="2"/>
<path opacity="0.318841" d="M1408.63 289.621C1326.93 211.443 1205.29 192.178 1103.43 241.284C1036.8 273.405 986.193 331.353 963.328 401.696L917.849 541.606C891.482 622.722 892.99 710.325 922.132 790.486L951.819 872.144C981.014 952.449 1051.5 1010.58 1135.9 1023.94C1220.29 1037.31 1305.29 1003.81 1357.87 936.456L1411.34 867.969C1463.83 800.737 1492.33 717.888 1492.32 632.593L1492.3 485.478C1492.29 411.511 1462.07 340.76 1408.63 289.621Z" stroke="url(#paint21_linear_0_387)" stroke-width="2"/>
<path opacity="0.333333" d="M1438.45 288.455C1361.51 207.053 1242.25 181.704 1138.86 224.775C1070.84 253.108 1017.38 308.047 990.92 376.814L939.186 511.246C908.733 590.381 905.725 677.448 930.645 758.495L955.628 839.747C980.592 920.934 1047.58 982.223 1130.67 999.883C1213.75 1017.54 1299.88 988.801 1355.71 924.786L1411.58 860.72C1467.31 796.816 1499.97 716.053 1504.34 631.374L1511.76 487.521C1515.55 413.936 1489.06 342.004 1438.45 288.455Z" stroke="url(#paint22_linear_0_387)" stroke-width="2"/>
<path opacity="0.347826" d="M1467.32 287.923C1395.26 203.578 1278.68 172.342 1174.1 209.353C1104.9 233.841 1048.78 285.632 1018.82 352.639L961.276 481.331C926.871 558.28 919.409 644.58 940.095 726.292L960.495 806.875C981.216 888.724 1044.58 952.969 1126.13 974.821C1207.68 996.674 1294.68 972.716 1353.55 912.193L1411.51 852.607C1470.28 792.185 1506.97 713.716 1515.64 629.874L1530.16 489.653C1537.72 416.643 1515 343.727 1467.32 287.923Z" stroke="url(#paint23_linear_0_387)" stroke-width="2"/>
<path opacity="0.362319" d="M1495.23 287.967C1428.13 200.965 1314.52 164.052 1209.1 195C1138.95 215.595 1080.33 264.11 1046.98 329.181L984.095 451.9C945.883 526.468 934.038 611.775 950.49 693.932L966.443 773.596C982.921 855.885 1042.53 922.875 1122.34 948.809C1202.16 974.742 1289.76 955.581 1351.45 898.694L1411.19 843.621C1472.79 786.824 1513.35 710.847 1526.26 628.06L1547.52 491.814C1558.79 419.57 1539.88 345.867 1495.23 287.967Z" stroke="url(#paint24_linear_0_387)" stroke-width="2"/>
<path opacity="0.376812" d="M1522.14 288.523C1460.09 199.151 1349.72 156.784 1243.81 181.684C1172.91 198.353 1111.99 243.473 1075.38 306.439L1007.61 422.985C965.74 494.984 949.596 579.078 961.825 661.462L973.478 739.969C985.726 822.48 1041.46 891.998 1119.34 921.892C1197.21 951.785 1285.15 937.418 1349.46 884.296L1410.66 833.752C1474.87 780.712 1519.14 707.415 1536.21 625.896L1563.83 493.938C1578.75 422.646 1563.67 348.355 1522.14 288.523Z" stroke="url(#paint25_linear_0_387)" stroke-width="2"/>
<path opacity="0.391304" d="M1548.03 289.535C1491.1 198.08 1384.22 150.497 1278.17 169.385C1206.73 182.106 1143.71 223.723 1103.96 284.42L1031.78 394.627C986.422 463.881 966.074 546.547 974.102 628.942L981.617 706.065C989.657 788.582 1041.43 860.409 1117.17 894.131C1192.91 927.852 1280.93 918.263 1347.63 869.024L1409.97 823.003C1476.57 773.836 1524.39 703.4 1545.51 623.353L1579.11 495.972C1597.62 425.816 1586.37 351.132 1548.03 289.535Z" stroke="url(#paint26_linear_0_387)" stroke-width="2"/>
<path opacity="0.405797" d="M1572.89 290.941C1521.12 197.691 1417.99 145.141 1312.12 158.071C1240.37 166.834 1175.44 204.851 1132.68 263.125L1056.57 366.856C1007.9 433.198 983.451 514.229 987.312 596.422L990.861 671.95C994.727 754.259 1042.44 828.171 1115.86 865.58C1189.28 902.988 1277.12 898.146 1345.98 852.894L1409.17 811.371C1477.94 766.183 1529.12 698.775 1554.18 620.401L1593.37 497.855C1615.38 429.012 1607.97 354.133 1572.89 290.941Z" stroke="url(#paint27_linear_0_387)" stroke-width="2"/>
<path opacity="0.42029" d="M1596.71 292.678C1550.14 197.922 1450.97 140.662 1345.62 147.709C1273.78 152.514 1207.14 186.846 1161.52 242.549L1081.96 339.703C1030.15 402.976 1001.71 482.171 1001.45 563.952L1001.22 637.687C1000.95 719.579 1044.54 795.349 1115.46 836.295C1186.38 877.242 1273.79 877.102 1344.58 835.929L1408.32 798.858C1479.01 757.74 1533.38 693.52 1562.27 617.01L1606.63 499.529C1632.06 432.173 1628.47 357.293 1596.71 292.678Z" stroke="url(#paint28_linear_0_387)" stroke-width="2"/>
<path opacity="0.434783" d="M1619.48 294.686C1578.13 198.709 1483.12 137.011 1378.62 138.266C1306.9 139.127 1238.76 169.698 1190.43 222.691L1107.9 313.198C1053.13 373.256 1020.84 450.421 1016.51 531.586L1012.68 603.344C1008.34 684.614 1047.73 762.013 1115.99 806.339C1184.25 850.664 1270.98 855.169 1343.46 818.154L1407.45 785.47C1479.84 748.502 1537.2 687.616 1569.79 613.155L1618.9 500.94C1647.66 435.237 1647.87 360.55 1619.48 294.686Z" stroke="url(#paint29_linear_0_387)" stroke-width="2"/>
<path opacity="0.449275" d="M1641.21 296.897C1605.06 199.984 1514.41 134.124 1411.07 129.697C1339.7 126.639 1270.26 153.386 1219.38 203.539L1134.34 287.361C1076.82 344.068 1040.8 419.018 1032.47 499.367L1025.25 568.979C1016.9 649.426 1052.05 728.225 1117.48 775.764C1182.92 823.303 1268.72 832.381 1342.65 799.587L1406.63 771.21C1480.47 738.456 1540.62 681.041 1576.77 608.803L1630.21 502.025C1662.19 438.138 1666.17 363.835 1641.21 296.897Z" stroke="url(#paint30_linear_0_387)" stroke-width="2"/>
<path opacity="0.463768" d="M1661.87 299.258C1630.93 201.689 1544.81 131.953 1442.94 121.971C1372.11 115.03 1301.6 137.902 1248.33 185.092L1161.26 262.222C1101.17 315.456 1061.57 388.014 1049.31 467.352L1038.91 534.665C1026.63 614.093 1057.5 694.06 1119.96 744.639C1182.42 795.219 1267.06 808.786 1342.2 780.265L1405.88 756.095C1480.93 727.606 1543.67 673.786 1583.25 603.941L1640.59 502.741C1675.67 440.824 1683.38 367.093 1661.87 299.258Z" stroke="url(#paint31_linear_0_387)" stroke-width="2"/>
<path opacity="0.478261" d="M1681.49 301.704C1655.71 203.757 1574.28 130.437 1474.18 115.042C1404.11 104.267 1332.73 123.223 1277.24 167.339L1188.61 237.801C1126.16 287.449 1083.13 357.448 1067.02 435.583L1053.65 500.459C1037.53 578.68 1064.09 659.584 1123.44 713.024C1182.79 766.464 1266.03 784.425 1342.14 760.214L1405.26 740.133C1481.28 715.949 1546.4 665.836 1589.25 598.541L1650.06 503.032C1688.14 443.234 1699.53 370.26 1681.49 301.704Z" stroke="url(#paint32_linear_0_387)" stroke-width="2"/>
<path opacity="0.492754" d="M1700.05 304.177C1679.41 206.123 1602.8 129.515 1504.75 108.868C1435.65 94.3179 1363.61 109.329 1306.07 150.267L1216.34 214.117C1151.74 260.077 1105.44 327.358 1085.58 404.109L1069.46 466.426C1049.58 543.255 1071.83 624.866 1127.94 680.981C1184.06 737.096 1265.67 759.341 1342.5 739.464L1404.81 723.342C1481.56 703.485 1548.85 657.181 1594.81 592.586L1658.66 502.849C1699.59 445.312 1714.6 373.276 1700.05 304.177Z" stroke="url(#paint33_linear_0_387)" stroke-width="2"/>
<path opacity="0.507246" d="M1717.59 306.613C1702.01 208.719 1630.35 129.126 1534.62 103.4C1466.69 85.1451 1394.21 96.1937 1334.81 133.862L1244.41 191.182C1177.88 233.368 1128.47 297.782 1104.96 372.97L1086.31 432.621C1062.79 507.881 1080.71 589.971 1133.48 648.57C1186.24 707.168 1266.01 733.579 1343.31 718.046L1404.59 705.734C1481.82 690.217 1551.05 647.809 1599.95 586.054L1666.41 502.142C1710.08 447 1728.64 376.08 1717.59 306.613Z" stroke="url(#paint34_linear_0_387)" stroke-width="2"/>
<path opacity="0.521739" d="M1734.1 308.959C1723.52 211.485 1656.9 129.212 1563.76 98.5958C1497.19 76.7165 1424.5 83.7975 1363.41 118.112L1272.78 169.015C1204.54 207.349 1152.19 268.757 1125.14 342.213L1104.2 399.109C1077.13 472.63 1090.75 554.971 1140.05 615.857C1189.36 676.744 1267.07 707.188 1344.61 695.996L1404.62 687.335C1482.09 676.153 1553.04 637.718 1604.73 578.932L1673.36 500.871C1719.63 448.25 1741.67 378.617 1734.1 308.959Z" stroke="url(#paint35_linear_0_387)" stroke-width="2"/>
<path opacity="0.536232" d="M1749.61 311.155C1743.94 214.354 1682.44 129.708 1592.13 94.4034C1527.13 68.9915 1454.43 72.1109 1391.84 102.998L1301.41 147.625C1231.66 182.043 1176.56 240.316 1146.09 311.876L1123.07 365.942C1092.58 437.561 1101.92 519.93 1147.67 582.904C1193.43 645.878 1268.88 680.213 1346.41 673.346L1404.95 668.161C1482.42 661.299 1554.87 626.901 1609.15 571.205L1679.54 498.989C1728.26 449.008 1753.69 380.831 1749.61 311.155Z" stroke="url(#paint36_linear_0_387)" stroke-width="2"/>
<path opacity="0.550725" d="M1764.13 313.147C1763.27 217.264 1706.96 130.555 1619.72 90.7754C1556.46 61.9325 1483.97 61.1079 1420.07 88.5044L1330.23 127.02C1259.21 157.471 1201.54 212.49 1167.77 282L1142.92 333.177C1109.13 402.74 1114.22 484.914 1156.34 549.773C1198.46 614.631 1271.46 652.707 1348.75 650.133L1405.61 648.24C1482.85 645.668 1556.57 615.358 1613.27 562.86L1685 496.459C1736.02 449.227 1764.75 382.668 1764.13 313.147Z" stroke="url(#paint37_linear_0_387)" stroke-width="2"/>
<path opacity="0.565217" d="M1777.68 314.88C1781.53 220.154 1730.46 131.689 1646.5 87.6607C1585.17 55.4981 1513.1 50.7585 1448.08 74.6118L1359.23 107.208C1287.15 133.652 1227.09 185.309 1190.17 252.621L1163.7 300.868C1126.75 368.227 1127.64 449.99 1166.05 516.526C1204.47 583.061 1274.83 624.716 1351.64 626.394L1406.66 627.595C1483.42 629.272 1558.18 603.087 1617.12 553.888L1689.77 493.242C1742.94 448.862 1774.87 384.077 1777.68 314.88Z" stroke="url(#paint38_linear_0_387)" stroke-width="2"/>
<path opacity="0.57971" d="M1790.3 316.303C1798.73 222.962 1752.92 133.049 1672.45 85.0079C1613.22 49.6465 1541.78 41.032 1475.83 61.2995L1388.34 88.1915C1315.43 110.601 1253.18 158.799 1213.23 223.774L1185.38 269.063C1145.4 334.079 1142.15 415.218 1176.8 483.223C1211.45 551.228 1279.01 596.291 1355.1 602.164L1408.11 606.255C1484.16 612.124 1559.75 590.093 1620.73 544.28L1693.91 489.303C1749.07 447.869 1784.09 385.009 1790.3 316.303Z" stroke="url(#paint39_linear_0_387)" stroke-width="2"/>
<path opacity="0.594203" d="M1802.01 317.366C1814.89 225.63 1774.35 134.574 1697.56 82.7659C1640.59 44.3356 1569.99 31.8976 1503.32 48.5474L1417.53 69.9721C1344.01 88.3321 1279.76 132.985 1236.93 195.493L1207.93 237.813C1165.07 300.356 1157.75 380.663 1188.59 449.927C1219.43 519.191 1284.01 567.484 1359.16 577.483L1410.02 584.25C1485.13 594.244 1561.3 576.379 1624.14 534.03L1697.47 484.612C1754.45 446.207 1792.45 385.416 1802.01 317.366Z" stroke="url(#paint40_linear_0_387)" stroke-width="2"/>
<path opacity="0.608696" d="M1812.83 318.015C1830.02 228.092 1794.75 136.196 1721.8 80.8757C1667.26 39.5148 1597.7 23.3155 1530.49 36.3259L1446.73 52.5415C1372.83 66.8492 1306.79 107.881 1261.22 167.8L1231.3 207.155C1185.71 267.104 1174.39 346.376 1201.38 416.688C1228.37 486.999 1289.82 538.336 1363.82 552.382L1412.39 561.603C1486.35 575.642 1562.88 561.944 1627.38 523.126L1700.47 479.132C1759.12 443.833 1799.97 385.247 1812.83 318.015Z" stroke="url(#paint41_linear_0_387)" stroke-width="2"/>
<path opacity="0.623188" d="M1822.81 318.215C1844.16 230.304 1814.13 137.867 1745.18 79.2961C1693.22 35.1513 1624.89 15.2634 1557.35 24.6234L1475.93 35.9071C1401.86 46.1718 1334.23 83.5192 1286.09 140.736L1255.45 177.145C1207.29 234.387 1192.06 312.427 1215.18 383.575C1238.3 454.723 1296.48 508.911 1369.1 526.911L1415.28 538.36C1487.86 556.351 1564.53 546.81 1630.49 511.578L1702.99 472.849C1763.13 440.723 1806.72 384.473 1822.81 318.215Z" stroke="url(#paint42_linear_0_387)" stroke-width="2"/>
<path opacity="0.637681" d="M1831.98 317.914C1857.32 232.205 1832.49 139.52 1767.68 77.967C1718.44 31.1927 1651.54 7.6995 1583.86 13.4081L1505.06 20.055C1431.05 26.298 1362.02 59.9072 1311.46 114.318L1280.33 147.814C1229.75 202.246 1210.72 278.865 1229.95 350.638C1249.19 422.412 1303.98 479.25 1375 501.1L1418.7 514.545C1489.69 536.386 1566.28 530.978 1633.5 499.378L1705.06 465.733C1766.53 436.837 1812.71 383.045 1831.98 317.914Z" stroke="url(#paint43_linear_0_387)" stroke-width="2"/>
<path opacity="0.652174" d="M1840.37 317.076C1869.55 233.745 1849.85 141.101 1789.31 76.8394C1742.91 27.597 1677.64 0.591932 1610.02 2.65891L1534.09 4.97973C1460.35 7.23365 1390.13 37.0629 1337.32 88.5744L1305.91 119.203C1253.08 170.731 1230.34 245.746 1245.69 317.935C1261.03 390.123 1312.31 449.407 1381.54 474.991L1422.68 490.198C1491.88 515.773 1568.16 514.465 1636.45 486.53L1706.75 457.768C1769.37 432.15 1818.02 380.932 1840.37 317.076Z" stroke="url(#paint44_linear_0_387)" stroke-width="2"/>
<path opacity="0.666667" d="M1848.03 315.662C1880.85 234.874 1866.23 142.552 1810.05 75.8607C1766.63 24.3184 1703.17 -6.0955 1635.79 -7.65028L1562.97 -9.3308C1489.71 -11.0214 1418.51 14.9969 1363.61 63.5237L1332.13 91.3457C1277.2 139.886 1250.89 213.121 1262.36 285.516C1273.82 357.911 1321.48 419.429 1388.71 448.622L1427.25 465.354C1494.46 494.539 1570.22 497.283 1639.37 473.037L1708.11 448.935C1771.7 426.636 1822.66 378.1 1848.03 315.662Z" stroke="url(#paint45_linear_0_387)" stroke-width="2"/>
<path opacity="0.681159" d="M1855 313.634C1891.29 235.543 1881.65 143.816 1829.92 74.9762C1789.58 21.3086 1728.1 -12.4015 1661.17 -17.5481L1591.66 -22.8928C1519.09 -28.4721 1447.12 -6.28472 1390.29 39.1819L1358.93 64.2706C1302.09 109.747 1272.32 181.034 1279.93 253.429C1287.53 325.824 1331.48 389.364 1396.53 422.028L1432.42 440.049C1497.46 472.707 1572.48 479.445 1642.3 458.901L1709.18 439.221C1773.58 420.27 1826.71 374.514 1855 313.634Z" stroke="url(#paint46_linear_0_387)" stroke-width="2"/>
<path opacity="0.695652" d="M1861.32 310.96C1900.89 235.707 1896.12 144.841 1848.91 74.1372C1811.77 18.5242 1752.44 -18.3603 1686.14 -27.0587L1620.12 -35.72C1548.45 -45.1216 1475.9 -26.774 1417.32 15.5667L1386.28 38.007C1327.69 80.3544 1294.59 149.535 1298.37 221.726C1302.15 293.918 1342.31 359.259 1405 395.25L1438.22 414.322C1500.91 450.308 1574.97 460.971 1645.26 444.13L1710.02 428.615C1775.05 413.034 1830.2 370.15 1861.32 310.96Z" stroke="url(#paint47_linear_0_387)" stroke-width="2"/>
<path opacity="0.710145" d="M1867.03 307.61C1909.68 235.326 1909.68 145.577 1867.03 73.2929C1833.18 15.9198 1776.17 -24.0087 1710.69 -36.2091L1648.3 -47.831C1577.74 -60.9774 1504.82 -46.4678 1444.66 -7.30942L1414.11 12.5795C1353.94 51.7419 1317.65 118.664 1317.65 190.451C1317.65 262.239 1353.94 329.161 1414.11 368.323L1444.66 388.212C1504.82 427.371 1577.74 441.88 1648.3 428.734L1710.69 417.112C1776.17 404.912 1833.18 364.983 1867.03 307.61Z" stroke="url(#paint48_linear_0_387)" stroke-width="2"/>
<path opacity="0.724638" d="M1872.19 303.557C1917.72 234.358 1922.35 145.972 1884.31 72.3935C1853.83 13.4499 1799.29 -29.3839 1734.8 -45.0267L1676.18 -59.2466C1606.91 -76.0501 1533.82 -65.3659 1472.26 -29.4367L1442.37 -11.9915C1380.8 23.9396 1341.47 88.461 1337.74 159.648C1334.01 230.835 1366.38 299.114 1423.85 341.284L1451.76 361.758C1509.23 403.926 1580.8 422.191 1651.45 412.721L1711.24 404.706C1777 395.89 1835.72 358.991 1872.19 303.557Z" stroke="url(#paint49_linear_0_387)" stroke-width="2"/>
<defs>
<linearGradient id="paint0_linear_0_387" x1="1553.24" y1="983.577" x2="415.98" y2="1428.92" gradientUnits="userSpaceOnUse">
<stop stop-color="#A3E1E6" stop-opacity="0"/>
<stop offset="0.77" stop-color="#0052FF"/>
</linearGradient>
<linearGradient id="paint1_linear_0_387" x1="1560.29" y1="1001.37" x2="408.21" y2="1382.35" gradientUnits="userSpaceOnUse">
<stop stop-color="#A3E1E6" stop-opacity="0"/>
<stop offset="0.77" stop-color="#0052FF"/>
</linearGradient>
<linearGradient id="paint2_linear_0_387" x1="1565.68" y1="1018.43" x2="402.398" y2="1334.71" gradientUnits="userSpaceOnUse">
<stop stop-color="#A3E1E6" stop-opacity="0"/>
<stop offset="0.77" stop-color="#0052FF"/>
</linearGradient>
<linearGradient id="paint3_linear_0_387" x1="1569.48" y1="1034.66" x2="398.596" y2="1286.12" gradientUnits="userSpaceOnUse">
<stop stop-color="#A3E1E6" stop-opacity="0"/>
<stop offset="0.77" stop-color="#0052FF"/>
</linearGradient>
<linearGradient id="paint4_linear_0_387" x1="1571.74" y1="1050" x2="396.844" y2="1236.71" gradientUnits="userSpaceOnUse">
<stop stop-color="#A3E1E6" stop-opacity="0"/>
<stop offset="0.77" stop-color="#0052FF"/>
</linearGradient>
<linearGradient id="paint5_linear_0_387" x1="1572.52" y1="1064.37" x2="397.174" y2="1186.6" gradientUnits="userSpaceOnUse">
<stop stop-color="#A3E1E6" stop-opacity="0"/>
<stop offset="0.77" stop-color="#0052FF"/>
</linearGradient>
<linearGradient id="paint6_linear_0_387" x1="1571.89" y1="1077.71" x2="399.614" y2="1135.92" gradientUnits="userSpaceOnUse">
<stop stop-color="#A3E1E6" stop-opacity="0"/>
<stop offset="0.77" stop-color="#0052FF"/>
</linearGradient>
<linearGradient id="paint7_linear_0_387" x1="1569.92" y1="1089.94" x2="404.182" y2="1084.8" gradientUnits="userSpaceOnUse">
<stop stop-color="#A3E1E6" stop-opacity="0"/>
<stop offset="0.77" stop-color="#0052FF"/>
</linearGradient>
<linearGradient id="paint8_linear_0_387" x1="1566.68" y1="1101.01" x2="410.894" y2="1033.36" gradientUnits="userSpaceOnUse">
<stop stop-color="#A3E1E6" stop-opacity="0"/>
<stop offset="0.77" stop-color="#0052FF"/>
</linearGradient>
<linearGradient id="paint9_linear_0_387" x1="1562.25" y1="1110.86" x2="419.748" y2="981.728" gradientUnits="userSpaceOnUse">
<stop stop-color="#A3E1E6" stop-opacity="0"/>
<stop offset="0.77" stop-color="#0052FF"/>
</linearGradient>
<linearGradient id="paint10_linear_0_387" x1="1556.7" y1="1119.44" x2="430.741" y2="930.032" gradientUnits="userSpaceOnUse">
<stop stop-color="#A3E1E6" stop-opacity="0"/>
<stop offset="0.77" stop-color="#0052FF"/>
</linearGradient>
<linearGradient id="paint11_linear_0_387" x1="1550.11" y1="1126.71" x2="443.869" y2="878.398" gradientUnits="userSpaceOnUse">
<stop stop-color="#A3E1E6" stop-opacity="0"/>
<stop offset="0.77" stop-color="#0052FF"/>
</linearGradient>
<linearGradient id="paint12_linear_0_387" x1="1542.55" y1="1132.62" x2="459.106" y2="826.949" gradientUnits="userSpaceOnUse">
<stop stop-color="#A3E1E6" stop-opacity="0"/>
<stop offset="0.77" stop-color="#0052FF"/>
</linearGradient>
<linearGradient id="paint13_linear_0_387" x1="1534.12" y1="1137.14" x2="476.429" y2="775.81" gradientUnits="userSpaceOnUse">
<stop stop-color="#A3E1E6" stop-opacity="0"/>
<stop offset="0.77" stop-color="#0052FF"/>
</linearGradient>
<linearGradient id="paint14_linear_0_387" x1="1524.89" y1="1140.22" x2="495.81" y2="725.099" gradientUnits="userSpaceOnUse">
<stop stop-color="#A3E1E6" stop-opacity="0"/>
<stop offset="0.77" stop-color="#0052FF"/>
</linearGradient>
<linearGradient id="paint15_linear_0_387" x1="1514.96" y1="1141.86" x2="517.204" y2="674.937" gradientUnits="userSpaceOnUse">
<stop stop-color="#A3E1E6" stop-opacity="0"/>
<stop offset="0.77" stop-color="#0052FF"/>
</linearGradient>
<linearGradient id="paint16_linear_0_387" x1="1504.39" y1="1142.02" x2="540.568" y2="625.437" gradientUnits="userSpaceOnUse">
<stop stop-color="#A3E1E6" stop-opacity="0"/>
<stop offset="0.77" stop-color="#0052FF"/>
</linearGradient>
<linearGradient id="paint17_linear_0_387" x1="1493.29" y1="1140.68" x2="565.849" y2="576.712" gradientUnits="userSpaceOnUse">
<stop stop-color="#A3E1E6" stop-opacity="0"/>
<stop offset="0.77" stop-color="#0052FF"/>
</linearGradient>
<linearGradient id="paint18_linear_0_387" x1="1481.72" y1="1137.84" x2="592.987" y2="528.871" gradientUnits="userSpaceOnUse">
<stop stop-color="#A3E1E6" stop-opacity="0"/>
<stop offset="0.77" stop-color="#0052FF"/>
</linearGradient>
<linearGradient id="paint19_linear_0_387" x1="1469.79" y1="1133.48" x2="621.922" y2="482.021" gradientUnits="userSpaceOnUse">
<stop stop-color="#A3E1E6" stop-opacity="0"/>
<stop offset="0.77" stop-color="#0052FF"/>
</linearGradient>
<linearGradient id="paint20_linear_0_387" x1="1457.57" y1="1127.6" x2="652.578" y2="436.256" gradientUnits="userSpaceOnUse">
<stop stop-color="#A3E1E6" stop-opacity="0"/>
<stop offset="0.77" stop-color="#0052FF"/>
</linearGradient>
<linearGradient id="paint21_linear_0_387" x1="1445.14" y1="1120.21" x2="684.877" y2="391.673" gradientUnits="userSpaceOnUse">
<stop stop-color="#A3E1E6" stop-opacity="0"/>
<stop offset="0.77" stop-color="#0052FF"/>
</linearGradient>
<linearGradient id="paint22_linear_0_387" x1="1432.6" y1="1111.3" x2="718.742" y2="348.363" gradientUnits="userSpaceOnUse">
<stop stop-color="#A3E1E6" stop-opacity="0"/>
<stop offset="0.77" stop-color="#0052FF"/>
</linearGradient>
<linearGradient id="paint23_linear_0_387" x1="1420.02" y1="1100.89" x2="754.082" y2="306.411" gradientUnits="userSpaceOnUse">
<stop stop-color="#A3E1E6" stop-opacity="0"/>
<stop offset="0.77" stop-color="#0052FF"/>
</linearGradient>
<linearGradient id="paint24_linear_0_387" x1="1407.48" y1="1089" x2="790.813" y2="265.898" gradientUnits="userSpaceOnUse">
<stop stop-color="#A3E1E6" stop-opacity="0"/>
<stop offset="0.77" stop-color="#0052FF"/>
</linearGradient>
<linearGradient id="paint25_linear_0_387" x1="1395.06" y1="1075.63" x2="828.831" y2="226.892" gradientUnits="userSpaceOnUse">
<stop stop-color="#A3E1E6" stop-opacity="0"/>
<stop offset="0.77" stop-color="#0052FF"/>
</linearGradient>
<linearGradient id="paint26_linear_0_387" x1="1382.83" y1="1060.83" x2="868.043" y2="189.467" gradientUnits="userSpaceOnUse">
<stop stop-color="#A3E1E6" stop-opacity="0"/>
<stop offset="0.77" stop-color="#0052FF"/>
</linearGradient>
<linearGradient id="paint27_linear_0_387" x1="1370.88" y1="1044.6" x2="908.34" y2="153.683" gradientUnits="userSpaceOnUse">
<stop stop-color="#A3E1E6" stop-opacity="0"/>
<stop offset="0.77" stop-color="#0052FF"/>
</linearGradient>
<linearGradient id="paint28_linear_0_387" x1="1359.28" y1="1026.99" x2="949.622" y2="119.594" gradientUnits="userSpaceOnUse">
<stop stop-color="#A3E1E6" stop-opacity="0"/>
<stop offset="0.77" stop-color="#0052FF"/>
</linearGradient>
<linearGradient id="paint29_linear_0_387" x1="1348.09" y1="1008.03" x2="991.774" y2="87.2497" gradientUnits="userSpaceOnUse">
<stop stop-color="#A3E1E6" stop-opacity="0"/>
<stop offset="0.77" stop-color="#0052FF"/>
</linearGradient>
<linearGradient id="paint30_linear_0_387" x1="1337.38" y1="987.747" x2="1034.69" y2="56.686" gradientUnits="userSpaceOnUse">
<stop stop-color="#A3E1E6" stop-opacity="0"/>
<stop offset="0.77" stop-color="#0052FF"/>
</linearGradient>
<linearGradient id="paint31_linear_0_387" x1="1327.22" y1="966.197" x2="1078.25" y2="27.9449" gradientUnits="userSpaceOnUse">
<stop stop-color="#A3E1E6" stop-opacity="0"/>
<stop offset="0.77" stop-color="#0052FF"/>
</linearGradient>
<linearGradient id="paint32_linear_0_387" x1="1317.66" y1="943.419" x2="1122.35" y2="1.05125" gradientUnits="userSpaceOnUse">
<stop stop-color="#A3E1E6" stop-opacity="0"/>
<stop offset="0.77" stop-color="#0052FF"/>
</linearGradient>
<linearGradient id="paint33_linear_0_387" x1="1308.78" y1="919.46" x2="1166.86" y2="-23.974" gradientUnits="userSpaceOnUse">
<stop stop-color="#A3E1E6" stop-opacity="0"/>
<stop offset="0.77" stop-color="#0052FF"/>
</linearGradient>
<linearGradient id="paint34_linear_0_387" x1="1300.61" y1="894.369" x2="1211.67" y2="-47.1201" gradientUnits="userSpaceOnUse">
<stop stop-color="#A3E1E6" stop-opacity="0"/>
<stop offset="0.77" stop-color="#0052FF"/>
</linearGradient>
<linearGradient id="paint35_linear_0_387" x1="1293.22" y1="868.201" x2="1256.66" y2="-68.3769" gradientUnits="userSpaceOnUse">
<stop stop-color="#A3E1E6" stop-opacity="0"/>
<stop offset="0.77" stop-color="#0052FF"/>
</linearGradient>
<linearGradient id="paint36_linear_0_387" x1="1286.65" y1="841.009" x2="1301.71" y2="-87.7478" gradientUnits="userSpaceOnUse">
<stop stop-color="#A3E1E6" stop-opacity="0"/>
<stop offset="0.77" stop-color="#0052FF"/>
</linearGradient>
<linearGradient id="paint37_linear_0_387" x1="1280.94" y1="812.85" x2="1346.71" y2="-105.239" gradientUnits="userSpaceOnUse">
<stop stop-color="#A3E1E6" stop-opacity="0"/>
<stop offset="0.77" stop-color="#0052FF"/>
</linearGradient>
<linearGradient id="paint38_linear_0_387" x1="1276.15" y1="783.784" x2="1391.55" y2="-120.867" gradientUnits="userSpaceOnUse">
<stop stop-color="#A3E1E6" stop-opacity="0"/>
<stop offset="0.77" stop-color="#0052FF"/>
</linearGradient>
<linearGradient id="paint39_linear_0_387" x1="1272.29" y1="753.871" x2="1436.1" y2="-134.652" gradientUnits="userSpaceOnUse">
<stop stop-color="#A3E1E6" stop-opacity="0"/>
<stop offset="0.77" stop-color="#0052FF"/>
</linearGradient>
<linearGradient id="paint40_linear_0_387" x1="1269.42" y1="723.172" x2="1480.25" y2="-146.624" gradientUnits="userSpaceOnUse">
<stop stop-color="#A3E1E6" stop-opacity="0"/>
<stop offset="0.77" stop-color="#0052FF"/>
</linearGradient>
<linearGradient id="paint41_linear_0_387" x1="1267.55" y1="691.745" x2="1523.89" y2="-156.825" gradientUnits="userSpaceOnUse">
<stop stop-color="#A3E1E6" stop-opacity="0"/>
<stop offset="0.77" stop-color="#0052FF"/>
</linearGradient>
<linearGradient id="paint42_linear_0_387" x1="1266.71" y1="659.663" x2="1566.92" y2="-165.287" gradientUnits="userSpaceOnUse">
<stop stop-color="#A3E1E6" stop-opacity="0"/>
<stop offset="0.77" stop-color="#0052FF"/>
</linearGradient>
<linearGradient id="paint43_linear_0_387" x1="1266.93" y1="626.985" x2="1609.23" y2="-172.065" gradientUnits="userSpaceOnUse">
<stop stop-color="#A3E1E6" stop-opacity="0"/>
<stop offset="0.77" stop-color="#0052FF"/>
</linearGradient>
<linearGradient id="paint44_linear_0_387" x1="1268.22" y1="593.778" x2="1650.71" y2="-177.211" gradientUnits="userSpaceOnUse">
<stop stop-color="#A3E1E6" stop-opacity="0"/>
<stop offset="0.77" stop-color="#0052FF"/>
</linearGradient>
<linearGradient id="paint45_linear_0_387" x1="1270.59" y1="560.108" x2="1691.28" y2="-180.788" gradientUnits="userSpaceOnUse">
<stop stop-color="#A3E1E6" stop-opacity="0"/>
<stop offset="0.77" stop-color="#0052FF"/>
</linearGradient>
<linearGradient id="paint46_linear_0_387" x1="1274.06" y1="526.035" x2="1730.82" y2="-182.865" gradientUnits="userSpaceOnUse">
<stop stop-color="#A3E1E6" stop-opacity="0"/>
<stop offset="0.77" stop-color="#0052FF"/>
</linearGradient>
<linearGradient id="paint47_linear_0_387" x1="1278.64" y1="491.629" x2="1769.27" y2="-183.514" gradientUnits="userSpaceOnUse">
<stop stop-color="#A3E1E6" stop-opacity="0"/>
<stop offset="0.77" stop-color="#0052FF"/>
</linearGradient>
<linearGradient id="paint48_linear_0_387" x1="1284.32" y1="456.951" x2="1806.52" y2="-182.814" gradientUnits="userSpaceOnUse">
<stop stop-color="#A3E1E6" stop-opacity="0"/>
<stop offset="0.77" stop-color="#0052FF"/>
</linearGradient>
<linearGradient id="paint49_linear_0_387" x1="1291.1" y1="422.067" x2="1842.5" y2="-180.848" gradientUnits="userSpaceOnUse">
<stop stop-color="#A3E1E6" stop-opacity="0"/>
<stop offset="0.77" stop-color="#0052FF"/>
</linearGradient>
</defs>
</svg>
