<?xml version="1.0" encoding="UTF-8"?>
<svg version="1.1" xmlns="http://www.w3.org/2000/svg" width="182" height="182">
<path d="M0 0 C17.10201934 16.07747441 28.05993853 38.1238484 28.953125 61.80859375 C29.43464355 88.73682857 20.768653 112.56967778 2.2109375 132.2578125 C-12.62870828 147.41488386 -34.91324247 157.34533132 -56.08203125 158.05078125 C-58.0754317 158.07003241 -60.06903755 158.07360968 -62.0625 158.0625 C-63.11348877 158.05758545 -64.16447754 158.0526709 -65.24731445 158.04760742 C-86.12874732 157.73368564 -105.24635004 150.11601136 -121.25 136.75 C-121.90484375 136.24082031 -122.5596875 135.73164063 -123.234375 135.20703125 C-139.68058154 121.88560395 -150.18703731 100.06598892 -152.93359375 79.35546875 C-155.13871413 54.22798584 -149.87096692 29.94395881 -133.75 9.875 C-132.26618922 8.15258648 -130.76765722 6.44266634 -129.25 4.75 C-128.70988281 4.12738281 -128.16976562 3.50476563 -127.61328125 2.86328125 C-94.12077362 -33.32887435 -35.39326782 -31.83788447 0 0 Z " fill="#090319" transform="translate(153.25,24.25)"/>
<path d="M0 0 C5.16225099 2.70484887 9.13627079 5.61152533 11.15625 11.2734375 C11.94207587 13.85429707 12.6616553 16.44584954 13.36328125 19.05078125 C15.45836529 26.60761617 17.50403431 31.82429263 24.61328125 35.92578125 C30.37913689 37.65553794 34.98562586 38.12305721 40.55078125 35.61328125 C43.67144648 32.77000848 45.75022423 29.83872974 47.96875 26.26953125 C49.3307524 24.10253583 50.80190877 22.07734141 52.36328125 20.05078125 C53.84828125 20.54578125 53.84828125 20.54578125 55.36328125 21.05078125 C56.39286102 33.19982254 51.04889138 43.87493298 43.36328125 53.05078125 C36.62698512 60.63999343 24.9639745 66.46355741 14.89453125 67.359375 C2.60591622 67.8990467 -5.50298869 64.80372192 -15.01171875 56.73828125 C-19.34704986 52.58358893 -22.7599838 48.31880212 -25.63671875 43.05078125 C-26.25546875 41.94863281 -26.25546875 41.94863281 -26.88671875 40.82421875 C-30.87114237 32.55100583 -31.37059292 21.27033185 -28.51171875 12.48828125 C-22.42686245 1.33271136 -12.88568076 -4.63884507 0 0 Z " fill="#520DF9" transform="translate(53.63671875,67.94921875)"/>
<path d="M0 0 C1.99927844 1.27111484 3.9618798 2.60256723 5.875 4 C7.13570312 4.90298828 7.13570312 4.90298828 8.421875 5.82421875 C16.02105167 11.90611014 22.09025495 20.8568341 23.66015625 30.59375 C24.61317599 41.26757104 24.47914861 50.30539514 17.5 58.9375 C10.35035606 64.55507738 3.71910575 65.04107759 -5.125 64 C-10.18385421 62.37141085 -13.15034374 59.4512525 -15.9375 55 C-18.33634709 50.21835162 -19.37791177 45.25057828 -20.3515625 40.015625 C-21.41827451 35.85652564 -22.75664287 33.03392656 -26.21875 30.41796875 C-32.47610964 27.21818257 -38.10196773 25.51124662 -45.125 27 C-51.27348386 30.08003146 -54.24359777 36.02474191 -57.125 42 C-58.445 42 -59.765 42 -61.125 42 C-62.19136036 31.2890026 -58.459105 22.073281 -51.7109375 13.80078125 C-51.18757813 13.20652344 -50.66421875 12.61226562 -50.125 12 C-49.60164063 11.39542969 -49.07828125 10.79085937 -48.5390625 10.16796875 C-36.54656857 -2.75352119 -16.16913163 -8.3705764 0 0 Z " fill="#5610FA" transform="translate(134.125,51)"/>
<path d="M0 0 C0.99 0.66 1.98 1.32 3 2 C1.02 2.33 -0.96 2.66 -3 3 C-2.65555119 5.47266765 -2.65555119 5.47266765 -2 8 C-1.34 8.33 -0.68 8.66 0 9 C-0.33 10.65 -0.66 12.3 -1 14 C0.32 13.67 1.64 13.34 3 13 C2.32599065 18.72907944 -0.34507366 22.5420887 -4.625 26.3125 C-9.07387673 29.47354399 -12.64144414 29.60015826 -18 29 C-23.10823353 27.46660621 -27.39575804 24.55861948 -30.74609375 20.4140625 C-33.50530849 15.10192945 -34.13858964 8.87119168 -35 3 C-34.34 3 -33.68 3 -33 3 C-31 6 -31 6 -31 9 C-30.34 9 -29.68 9 -29 9 C-28.67 8.34 -28.34 7.68 -28 7 C-27.34 9.97 -26.68 12.94 -26 16 C-22.93163674 15.33420116 -22.93163674 15.33420116 -21.859375 13.14453125 C-21.49328125 12.37496094 -21.1271875 11.60539062 -20.75 10.8125 C-15.83796652 1.71506521 -10.5532143 -1.74766606 0 0 Z " fill="#0C0323" transform="translate(100,77)"/>
<path d="M0 0 C3 0.75 3 0.75 6 2.75 C6.42696214 6.02337643 6.28886723 8.10429678 4.9375 11.125 C3 12.75 3 12.75 -0.5 13.25 C-4 12.75 -4 12.75 -6 11.1875 C-7.43135511 7.69857191 -6.933966 5.35244028 -6 1.75 C-3 -0.25 -3 -0.25 0 0 Z " fill="#5C14F9" transform="translate(92,84.25)"/>
<path d="M0 0 C0.93423645 3.01031744 1.04449911 3.86650268 0 7 C0.66 7 1.32 7 2 7 C2 7.99 2 8.98 2 10 C2.99 10.33 3.98 10.66 5 11 C3.35 13.97 1.7 16.94 0 20 C-1.32 20 -2.64 20 -4 20 C-4.58179863 12.40429561 -3.26889853 6.85884959 0 0 Z " fill="#6928ED" transform="translate(77,73)"/>
<path d="M0 0 C4.3573248 4.3573248 4.16934852 11.70010604 4.3125 17.5625 C4.24156431 23.05679143 3.33051651 27.04765241 1 32 C0.05635815 28.96592934 -0.03532376 28.10817903 1 24.9375 C2.67168427 19.77659555 2.44084557 12.88169114 0 8 C-0.13415472 5.3276379 -0.04318541 2.67749512 0 0 Z " fill="#3C06C7" transform="translate(154,73)"/>
<path d="M0 0 C0.99 0.33 1.98 0.66 3 1 C3.86748155 11.23628228 0.25452702 20.89227979 -6 29 C-6.33 28.01 -6.66 27.02 -7 26 C-6.67 25.34 -6.34 24.68 -6 24 C-5.34 24 -4.68 24 -4 24 C-1.70438191 17.40620337 0.22089072 10.75052102 2 4 C0.68 4 -0.64 4 -2 4 C-1.34 2.68 -0.68 1.36 0 0 Z " fill="#6126DF" transform="translate(106,88)"/>
<path d="M0 0 C0.928125 0.20625 1.85625 0.4125 2.8125 0.625 C2.8125 1.615 2.8125 2.605 2.8125 3.625 C2.4825 2.965 2.1525 2.305 1.8125 1.625 C-1.41810419 2.18200072 -3.2533223 2.91715122 -5.1875 5.625 C-5.43819913 8.25070704 -5.43819913 8.25070704 -5.1875 10.625 C-5.8475 9.965 -6.5075 9.305 -7.1875 8.625 C-7 5.125 -7 5.125 -6.1875 1.625 C-3.1875 -0.375 -3.1875 -0.375 0 0 Z " fill="#571ED3" transform="translate(92.1875,84.375)"/>
<path d="M0 0 C1.07765625 0.01804687 2.1553125 0.03609375 3.265625 0.0546875 C4.49539062 0.08949219 4.49539062 0.08949219 5.75 0.125 C5.75 0.455 5.75 0.785 5.75 1.125 C4.99074219 1.15078125 4.23148438 1.1765625 3.44921875 1.203125 C2.45535156 1.25984375 1.46148437 1.3165625 0.4375 1.375 C-0.54863281 1.42140625 -1.53476562 1.4678125 -2.55078125 1.515625 C-5.88761914 2.26894875 -6.37933398 3.38425677 -8.25 6.125 C-11.4375 6.375 -11.4375 6.375 -14.25 6.125 C-9.66315744 1.21052582 -6.76212921 -0.14700281 0 0 Z " fill="#3806BD" transform="translate(45.25,66.875)"/>
<path d="M0 0 C0.99 0.33 1.98 0.66 3 1 C1.71480435 3.86697492 0.42870746 5.97607712 -2 8 C-2.66 8 -3.32 8 -4 8 C-4 7.01 -4 6.02 -4 5 C-3.34 5 -2.68 5 -2 5 C-1.7834375 4.0409375 -1.7834375 4.0409375 -1.5625 3.0625 C-1 1 -1 1 0 0 Z " fill="#5D20DE" transform="translate(95,117)"/>
<path d="M0 0 C0 3.54913582 -0.56122405 3.97588078 -2.875 6.5 C-4.81019815 8.63152259 -6.39002236 10.58503354 -8 13 C-8.66 13 -9.32 13 -10 13 C-8.65515286 8.95838045 -6.9494838 6.61321846 -3.875 3.6875 C-3.15054688 2.99011719 -2.42609375 2.29273438 -1.6796875 1.57421875 C-1.12539062 1.05472656 -0.57109375 0.53523438 0 0 Z " fill="#5F26D8" transform="translate(89,58)"/>
<path d="M0 0 C5.65394631 -0.34615998 9.03006806 0.56574762 14 3 C10.67465243 4.10844919 8.37817425 3.84454356 5 3 C5 2.34 5 1.68 5 1 C3.35 1 1.7 1 0 1 C0 0.67 0 0.34 0 0 Z " fill="#4506E4" transform="translate(45,68)"/>
<path d="M0 0 C5.94 0 11.88 0 18 0 C18.33 0.99 18.66 1.98 19 3 C18.49984375 2.84660156 17.9996875 2.69320312 17.484375 2.53515625 C14.09672234 1.80542604 10.70038481 1.63643523 7.25 1.4375 C6.55261719 1.39431641 5.85523437 1.35113281 5.13671875 1.30664062 C3.42468078 1.20110404 1.71236439 1.1001009 0 1 C0 0.67 0 0.34 0 0 Z " fill="#1F0958" transform="translate(112,47)"/>
<path d="M0 0 C0.28875 0.639375 0.5775 1.27875 0.875 1.9375 C1.82823451 4.15206079 1.82823451 4.15206079 4 5 C2.375 5.6875 2.375 5.6875 0 6 C-3.25 4.5625 -3.25 4.5625 -6 3 C-2.25 0 -2.25 0 0 0 Z " fill="#0F032F" transform="translate(96,81)"/>
<path d="M0 0 C0.33 0 0.66 0 1 0 C1.21691118 3.18136394 1.25066255 5.43969547 -0.0625 8.375 C-2.93947559 10.78794727 -5.37659799 10.2734643 -9 10 C-9 9.67 -9 9.34 -9 9 C-7.02 9 -5.04 9 -3 9 C-2.67 7.68 -2.34 6.36 -2 5 C-1.34 5 -0.68 5 0 5 C0 3.35 0 1.7 0 0 Z " fill="#450EC6" transform="translate(97,87)"/>
<path d="M0 0 C0.66 1.32 1.32 2.64 2 4 C1.67 4 1.34 4 1 4 C1 6.31 1 8.62 1 11 C1.66 11.33 2.32 11.66 3 12 C1.68 12 0.36 12 -1 12 C-1.02698189 10.37509046 -1.04638757 8.75005367 -1.0625 7.125 C-1.07410156 6.22007813 -1.08570312 5.31515625 -1.09765625 4.3828125 C-1 2 -1 2 0 0 Z " fill="#612ACD" transform="translate(74,81)"/>
<path d="M0 0 C0.99 0.66 1.98 1.32 3 2 C1.92892883 2.86949317 0.84254056 3.72014205 -0.25 4.5625 C-0.85328125 5.03816406 -1.4565625 5.51382813 -2.078125 6.00390625 C-4 7 -4 7 -6.234375 6.65234375 C-6.81703125 6.43707031 -7.3996875 6.22179687 -8 6 C-7.05125 5.7525 -6.1025 5.505 -5.125 5.25 C-1.91306809 4.3142923 -1.91306809 4.3142923 -0.625 1.875 C-0.41875 1.25625 -0.2125 0.6375 0 0 Z " fill="#150340" transform="translate(153,107)"/>
<path d="M0 0 C0.99 0.33 1.98 0.66 3 1 C3 3.97 3 6.94 3 10 C2.67 10 2.34 10 2 10 C2 8.02 2 6.04 2 4 C0.68 4 -0.64 4 -2 4 C-1.34 2.68 -0.68 1.36 0 0 Z " fill="#5523C3" transform="translate(106,88)"/>
<path d="M0 0 C0.66 0 1.32 0 2 0 C4.23551759 3.35327639 4.17283528 3.90743657 3.625 7.6875 C3.51414062 8.49574219 3.40328125 9.30398437 3.2890625 10.13671875 C3.19367188 10.75160156 3.09828125 11.36648437 3 12 C2.67 12 2.34 12 2 12 C1.34 8.04 0.68 4.08 0 0 Z " fill="#0E0231" transform="translate(65,80)"/>
</svg>
