<?xml version="1.0" encoding="UTF-8" standalone="no"?>
<!-- Created with Inkscape (http://www.inkscape.org/) -->

<svg
   width="180mm"
   height="180mm"
   viewBox="0 0 180 180"
   version="1.1"
   id="svg1"
   xml:space="preserve"
   xmlns:xlink="http://www.w3.org/1999/xlink"
   xmlns="http://www.w3.org/2000/svg"
   xmlns:svg="http://www.w3.org/2000/svg"><defs
     id="defs1"><linearGradient
       id="swatch12"><stop
         style="stop-color:#00063c;stop-opacity:1;"
         offset="0"
         id="stop12" /></linearGradient><style
       id="style1">
      .cls-1 {
        fill: #9ff3ff;
        stroke-width: 0px;
      }
    </style><clipPath
       id="clip0_14_992"><rect
         width="135.25999"
         height="44.259998"
         fill="#ffffff"
         id="rect6"
         x="0"
         y="0" /></clipPath><linearGradient
       xlink:href="#swatch12"
       id="linearGradient12"
       x1="14.247223"
       y1="123.97417"
       x2="194.24722"
       y2="123.97417"
       gradientUnits="userSpaceOnUse" /></defs><g
     id="layer1"
     transform="translate(-14.247223,-33.974167)"><circle
       style="opacity:1;fill:url(#linearGradient12);fill-opacity:1;stroke-width:0.906273"
       id="path7"
       cx="104.24722"
       cy="123.97417"
       r="90" /><g
       style="fill:none"
       id="g3"
       transform="matrix(1.0583333,0,0,1.0583333,32.672148,100.55325)"><g
         clip-path="url(#clip0_14_992)"
         id="g6"><path
           d="m 14.25,0 9.28,13.98 h 0.39 L 33.3,0 H 47.04 L 31.71,22.13 47.54,44.26 H 33.44 L 23.91,30.12 H 23.52 L 13.99,44.26 H 0 L 15.76,22.13 0.4,0 Z"
           fill="#f7f2ec"
           id="path1" /><path
           d="m 134.06,26.53 c -0.77,-1.39 -1.91,-2.62 -3.42,-3.69 -1.51,-1.06 -3.36,-1.98 -5.57,-2.75 -2.21,-0.78 -4.75,-1.39 -7.64,-1.86 l -5,-0.84 c -1.32,-0.21 -2.52,-0.46 -3.58,-0.74 -1.06,-0.28 -1.97,-0.6 -2.72,-0.97 -0.74,-0.38 -1.31,-0.81 -1.7,-1.3 -0.39,-0.49 -0.57,-1.06 -0.53,-1.71 0.01,-0.54 0.17,-1.04 0.46,-1.5 0.13,-0.2 0.29,-0.4 0.48,-0.59 0.6,-0.61 1.52,-1.09 2.73,-1.44 1.21,-0.36 2.73,-0.53 4.54,-0.53 2.75,0 4.87,0.43 6.36,1.29 0.62,0.36 1.14,0.79 1.52,1.27 h 14.18 C 133.77,9.43 132.93,7.86 131.65,6.44 129.81,4.4 127.23,2.82 123.9,1.69 120.58,0.56 116.66,0 112.15,0 c -4.51,0 -8.35,0.56 -11.8,1.68 -3.45,1.13 -6.15,2.69 -8.11,4.7 -1.38,1.43 -2.27,3.03 -2.66,4.79 -0.16,0.71 -0.24,1.45 -0.23,2.22 -0.02,3.27 1.42,5.86 4.31,7.78 2.91,1.92 6.88,3.3 11.92,4.16 l 6.09,1.05 c 2.11,0.37 3.87,0.76 5.24,1.19 1.37,0.43 2.39,0.94 3.06,1.52 0.66,0.58 1,1.28 1.02,2.09 -0.02,0.87 -0.39,1.65 -1.11,2.32 -0.72,0.67 -1.75,1.2 -3.09,1.58 -1.33,0.38 -2.95,0.57 -4.84,0.57 -2.07,0 -3.88,-0.24 -5.44,-0.72 -1.43,-0.44 -2.58,-1.06 -3.44,-1.86 h -14.7 c 0.5,1.76 1.35,3.31 2.57,4.64 2.01,2.2 4.82,3.85 8.44,4.93 3.62,1.08 7.87,1.62 12.73,1.62 4.86,0 9.01,-0.52 12.45,-1.56 3.44,-1.04 6.08,-2.53 7.91,-4.48 1.84,-1.95 2.77,-4.29 2.79,-7.02 -0.02,-1.72 -0.42,-3.28 -1.2,-4.67 z"
           fill="#f7f2ec"
           id="path2" /><path
           d="m 53.78,44.25 c 2.51,-0.05 3.82,-0.36 5.93,-0.93 -1.76,-0.47 -2.95,-1.1 -4.37,-2.02 -3.39,-2.18 -4.76,-4.43 -6.56,-7.69 -0.09,-0.17 -0.19,-0.34 -0.28,-0.52 -5.67,0.01 -6.81,0.01 -7.01,0.01 l 8.06,11.16 c 0.28,0 3.95,0 4.23,-0.01 z"
           fill="#0052ff"
           id="path3" /><path
           d="M 41.5,11.19 49.55,0 h 9.03 c 2.65,0.04 5.07,0.35 7.28,0.94 1.77,0.47 3.39,1.12 4.88,1.94 3.47,1.91 6.11,4.51 7.91,7.77 0.09,0.17 0.19,0.34 0.28,0.52 1.61,3.12 2.42,6.61 2.42,10.45 0,3.84 -0.42,6.53 -2.04,9.64 -3.21,0 -9.95,0.36 -12.23,-0.48 -0.45,-0.16 -0.84,-0.42 -1.22,-0.67 1.17,-0.76 2.1,-1.73 2.8,-2.9 0.91,-1.56 1.38,-3.42 1.38,-5.59 0,-2.17 -0.47,-4.05 -1.38,-5.6 -0.7,-1.18 -1.65,-2.15 -2.84,-2.91 -0.38,-0.25 -0.79,-0.47 -1.22,-0.67 -1.66,-0.77 -3.67,-1.19 -6.03,-1.24 -0.07,0 -2.6,-0.01 -5.82,-0.01 z"
           fill="#0052ff"
           id="path4" /><path
           d="m 75.95,0.01 c -2.51,0.05 -3.83,0.36 -5.94,0.93 1.76,0.47 2.95,1.1 4.37,2.01 3.4,2.19 4.77,4.44 6.57,7.7 0.09,0.17 0.19,0.34 0.28,0.52 H 87.1 C 87.55,8.88 88.69,6.81 90.5,4.99 92.6,2.87 95.46,1.19 98.98,0 96.87,0 76.21,0 75.95,0.01 Z"
           fill="#0052ff"
           id="path5" /><path
           d="M 98.18,44.26 H 71.14 c -2.65,-0.04 -5.07,-0.35 -7.28,-0.94 -1.77,-0.47 -3.39,-1.12 -4.88,-1.94 -3.47,-1.91 -6.11,-4.51 -7.91,-7.77 -0.09,-0.17 -0.19,-0.34 -0.28,-0.52 -1.61,-3.12 -2.42,-6.61 -2.42,-10.45 0,-3.84 0.42,-6.53 2.04,-9.64 3.21,0 9.95,-0.36 12.23,0.48 0.45,0.16 0.84,0.42 1.22,0.67 -1.17,0.76 -2.1,1.73 -2.8,2.9 -0.91,1.56 -1.38,3.42 -1.38,5.59 0,2.17 0.47,4.05 1.38,5.6 0.7,1.18 1.65,2.15 2.84,2.91 0.38,0.25 0.79,0.47 1.22,0.67 1.66,0.77 3.67,1.19 6.03,1.24 0.07,0 2.6,0.01 5.82,0.01 h 9.31 c 0.58,2.28 1.67,4.28 3.26,5.98 2.13,2.29 5.03,4.04 8.64,5.21 z"
           fill="#0052ff"
           id="path6" /></g></g></g></svg>
