<?xml version="1.0" encoding="UTF-8" standalone="no"?>
<!-- Created with Inkscape (http://www.inkscape.org/) -->

<svg
   width="16mm"
   height="15.999999mm"
   viewBox="0 0 16 15.999999"
   version="1.1"
   id="svg1"
   xml:space="preserve"
   inkscape:export-filename="Xswap.svg"
   inkscape:export-xdpi="110.01"
   inkscape:export-ydpi="110.01"
   xmlns:inkscape="http://www.inkscape.org/namespaces/inkscape"
   xmlns:sodipodi="http://sodipodi.sourceforge.net/DTD/sodipodi-0.dtd"
   xmlns="http://www.w3.org/2000/svg"
   xmlns:svg="http://www.w3.org/2000/svg"><sodipodi:namedview
     id="namedview1"
     pagecolor="#ffffff"
     bordercolor="#000000"
     borderopacity="0.25"
     inkscape:showpageshadow="2"
     inkscape:pageopacity="0.0"
     inkscape:pagecheckerboard="0"
     inkscape:deskcolor="#d1d1d1"
     inkscape:document-units="mm" /><defs
     id="defs1"><linearGradient
       id="paint0_linear_423_25781"
       x1="11.9673"
       y1="45.224998"
       x2="33.693001"
       y2="69.986801"
       gradientUnits="userSpaceOnUse"
       gradientTransform="matrix(0.78352008,0,0,0.78352008,3.1565059,5.6155734)"><stop
         stop-color="#AF50FE"
         id="stop1" /><stop
         offset="0.515625"
         stop-color="#659BFE"
         id="stop2" /><stop
         offset="1"
         stop-color="#01FFFE"
         id="stop3" /></linearGradient></defs><g
     inkscape:label="Layer 1"
     inkscape:groupmode="layer"
     id="layer1"
     transform="translate(-122.30737,-139.22473)"><g
       id="g1"
       transform="matrix(0.26458333,0,0,0.26458333,99.553352,143.20833)"><circle
         style="fill:#24221c;stroke-width:2.52304"
         id="path5"
         cx="116.23565"
         cy="15.18009"
         r="30.236221" /><g
         style="fill:none"
         id="g5"
         transform="matrix(0.86154922,0,0,0.86154922,95.249795,-7.8841107)"><path
           d="m 40.386325,6.1076656 -14.67541,9.0091864 c 0.0012,7.05e-4 0.0025,0.0014 0.0038,0.002 0.22009,0.115334 1.226992,1.007607 1.572681,1.420992 l 0.03455,0.03972 c 4.645961,-2.849584 9.291687,-5.699153 13.937647,-8.5489406 0.468467,-0.3280599 1.066528,-0.3582332 1.511019,-0.079175 0.470974,0.2953871 0.569619,0.8119854 0.585289,0.9020588 v 2.8540978 c -0.01927,0.282686 -0.09167,0.798603 -0.403199,1.352183 -0.341145,0.606649 -0.796057,0.950614 -1.037224,1.108493 l -9.718,6.041253 -0.0041,0.0025 c -0.922516,0.678842 -1.7011,1.500598 -2.319376,2.44709 C 29.13146,20.94392 28.11257,19.388241 26.84413,18.033379 25.989701,17.120891 25.029576,16.309556 23.98436,15.616689 L 23.640464,15.398449 23.49183,15.30427 8.6931878,6.23381 C 8.3667107,6.0359743 8.0148239,5.8837395 7.6472903,5.7813961 7.2942675,5.6829547 6.9294528,5.6314536 6.5628202,5.6280278 h -6.817e-4 c -0.9170319,0 -1.7787081,0.3598478 -2.4237175,1.0132518 C 3.5038528,7.2839933 3.1565058,8.1565839 3.1565058,9.0597789 v 2.9019701 l 4.535e-4,0.0077 c 0.097783,0.795657 0.3691047,1.577218 0.7847668,2.259899 0.4467162,0.733689 1.0665432,1.366694 1.7927723,1.830852 l 0.00181,0.0014 c 1.1121285,0.649773 2.2165784,1.3084 3.2826672,1.957703 0.4514877,0.274702 0.7142098,0.437204 1.0182234,0.625249 0.323296,0.199876 0.689929,0.426548 1.38325,0.850824 1.108759,0.678137 1.695694,1.031113 2.04624,1.241644 0.422631,0.254331 0.487742,0.29335 0.696942,0.440417 1.44724,1.016617 2.403526,1.688407 3.107048,2.953244 0.246809,0.443786 0.82489,1.483282 0.776155,2.880847 -0.0286,0.823087 -0.269765,1.634422 -0.716294,2.411439 -0.364807,0.634808 -0.773177,1.085176 -0.992563,1.327283 -0.492285,0.543372 -0.948999,0.870726 -1.143861,1.010506 -1.39349,0.99891 -3.208984,2.044831 -4.964759,3.056434 -2.0321216,1.1705 -3.9512679,2.276047 -5.1528038,3.258346 -0.3954426,0.323359 -0.9696609,0.849493 -1.3891803,1.685509 -0.249541,0.497065 -0.411757,1.030015 -0.4825427,1.584747 -0.00522,0.04035 -0.00726,0.0807 -0.00681,0.121368 l 0.029493,3.609833 0.00114,0.0061 c 0.052182,0.710809 0.3822859,1.336293 1.189509,2.007378 0.3645875,0.302909 0.7856747,0.524802 1.25031,0.659097 0.3614143,0.111417 0.7355373,0.165166 1.1114703,0.160622 0.4675891,-0.0059 0.9247417,-0.101623 1.358757,-0.284261 l 0.00431,-0.0018 14.4494975,-8.845707 0.07467,-0.04584 c -0.04631,-0.02922 -1.346792,-1.092854 -1.620398,-1.478972 l -0.03495,-0.03589 -13.5771256,8.361569 -0.00364,0.0023 c -0.060138,0.0431 -0.6048409,0.413553 -1.2575601,0.174423 C 5.9380006,45.66959 5.7383518,45.521896 5.5799946,45.316536 5.4282111,45.119872 5.344492,44.871418 5.344492,44.617087 v -2.675251 c 0,-0.408919 0.097337,-0.813372 0.2813307,-1.170265 0.03605,-0.06942 0.074411,-0.13884 0.1145741,-0.205988 0.3716158,-0.625014 0.9231513,-1.148875 1.5947063,-1.514623 l 0.00136,-9.4e-4 8.6197009,-5.240574 0.0041,-0.0027 c 0.60574,-0.440103 1.180217,-0.932467 1.707212,-1.463146 0.411348,-0.414247 0.800679,-0.858659 1.157808,-1.321955 0.659724,1.354472 1.484849,2.62111 2.452966,3.766146 1.146604,1.35643 2.481095,2.53171 3.975268,3.502492 l 0.326022,0.200816 0.43313,0.266554 14.178423,8.710001 0.0031,0.0018 c 0.557866,0.298599 1.179276,0.456243 1.797552,0.456243 h 0.005 c 0.124737,0 0.505214,-7.05e-4 0.96851,-0.117528 0.557631,-0.140641 1.042238,-0.397949 1.440893,-0.765264 0.394737,-0.363866 0.694199,-0.808357 0.890001,-1.321798 0.144559,-0.378362 0.227377,-0.796527 0.227377,-1.146603 0,-0.215782 -7.05e-4,-0.43172 -0.0012,-0.647501 -0.0013,-0.424276 -0.0027,-0.862813 0.0012,-1.294062 0.0084,-0.920244 -0.04725,-1.201371 -0.08783,-1.406654 -0.0027,-0.01434 -0.0054,-0.02836 -0.0084,-0.04223 -0.162424,-0.843773 -0.495733,-1.432275 -0.621175,-1.653933 -0.311057,-0.549013 -0.732826,-1.058144 -1.25371,-1.512742 -0.441044,-0.385492 -0.841266,-0.632771 -1.012073,-0.738546 -1.455859,-0.899951 -2.653783,-1.662943 -3.71083,-2.336536 -1.8799,-1.197688 -3.364592,-2.143554 -5.153211,-3.127263 -0.914603,-0.50302 -1.677752,-1.242428 -2.207098,-2.13807 -0.529268,-0.89619 -0.804283,-1.914688 -0.79543,-2.9458 0.0275,-3.130868 2.65057,-4.775007 2.762222,-4.843565 l 9.06282,-5.542777 c 0.768163,-0.437674 1.451314,-1.043178 1.975568,-1.751245 0.327668,-0.442689 0.597434,-0.927061 0.801619,-1.440244 0.163521,-0.411121 0.25292,-0.849649 0.265613,-1.304083 0.03816,-1.353311 0.01747,-2.2751071 -0.06668,-2.9881809 C 45.381691,8.0715425 45.204303,7.4984602 44.916594,7.0573854 44.682244,6.6978124 44.377768,6.4700274 44.15564,6.3037284 L 44.1178,6.2751414 C 43.581675,5.8757985 42.945535,5.648922 42.277584,5.6189743 c -0.05038,-0.00227 -0.100837,-0.0034 -0.151139,-0.0034 -0.61475,0 -1.213673,0.1686809 -1.74012,0.4920913 z M 41.404588,45.638327 25.870597,36.152171 c -1.648918,-1.105155 -2.728374,-2.359727 -3.019922,-2.718188 -1.37688,-1.692325 -2.307075,-3.383866 -2.576135,-5.459568 -0.05038,-0.387764 -0.07765,-0.788848 -0.08031,-1.205837 -0.0082,-0.234351 -0.017,-0.411975 -0.02789,-0.553322 -0.01136,-0.12121 -0.02609,-0.241873 -0.04403,-0.361908 -0.36552,-2.444818 -2.062547,-4.627391 -3.756204,-5.782378 l -0.0025,-0.0016 -9.3291065,-5.727061 -0.00408,-0.0023 C 6.605475,14.119979 6.2279516,13.80422 5.9384565,13.426681 5.5216865,12.883067 5.3633293,12.32021 5.3038836,11.942232 V 8.976287 c 0.021555,-0.2137443 0.1052738,-0.6100723 0.4235788,-0.8868586 0.4832439,-0.4199511 1.3018108,-0.392951 1.946593,0.064429 1.4567754,1.033173 6.6946226,4.1663526 10.5191406,6.4539416 1.924796,1.151617 3.445295,2.061128 3.785813,2.286938 l 0.005,-2.35e-4 c 1.120982,0.646326 2.13948,1.445829 3.026973,2.376259 1.206072,1.263974 2.072254,2.469969 2.648533,3.687167 0.505527,1.067233 0.786811,2.149666 0.860148,3.307395 -0.03228,0.823088 0.05963,1.633326 0.273605,2.41426 0.69083,2.521446 2.46613,4.041554 3.462532,4.723295 l 0.0014,0.0011 9.509661,5.887918 0.003,0.0018 c 0.357598,0.193764 1.0098,0.640684 1.359877,1.453586 0.127479,0.296093 0.203794,0.612791 0.226202,0.942027 v 3.068264 c -0.02672,0.175822 -0.112043,0.50255 -0.384081,0.747557 -0.190787,0.171982 -0.439712,0.275877 -0.719428,0.300166 -0.04262,0.0037 -0.08548,0.0056 -0.128419,0.0056 -0.241795,0 -0.487898,-0.05869 -0.719428,-0.172531 z"
           fill="url(#paint0_linear_423_25781)"
           id="path1"
           style="fill:url(#paint0_linear_423_25781);stroke-width:0.78352" /></g></g></g><style
     type="text/css"
     id="style1">
	.st0{fill:url(#SVGID_1_);}
	.st1{fill:#FFFFFF;}
	.st2{fill:url(#SVGID_2_);}
	.st3{fill:#FEFEFE;}
</style><style
     type="text/css"
     id="style1-6">
	.st0{fill:url(#SVGID_1_);}
	.st1{fill:#FFFFFF;}
	.st2{fill:url(#SVGID_2_);}
	.st3{fill:#FEFEFE;}
</style></svg>
