<?xml version="1.0" encoding="UTF-8" standalone="no"?>
<!-- Created with Inkscape (http://www.inkscape.org/) -->

<svg
   width="180mm"
   height="180mm"
   viewBox="0 0 180 180"
   version="1.1"
   id="svg1"
   xml:space="preserve"
   xmlns="http://www.w3.org/2000/svg"
   xmlns:svg="http://www.w3.org/2000/svg"><defs
     id="defs1"><linearGradient
       id="swatch12"><stop
         style="stop-color:#00063c;stop-opacity:1;"
         offset="0"
         id="stop12" /></linearGradient><style
       id="style1">
      .cls-1 {
        fill: #9ff3ff;
        stroke-width: 0px;
      }
    </style></defs><g
     id="layer1"
     transform="translate(-14.247223,-33.974167)"><circle
       style="opacity:1;fill:#2b2200;fill-opacity:1;stroke-width:0.906273"
       id="path7"
       cx="104.24722"
       cy="123.97417"
       r="90" /><g
       style="fill:#ffffff"
       id="g12"
       transform="matrix(1.0190766,0,0,1.0190766,26.884538,105.6806)"><path
         fill-rule="evenodd"
         clip-rule="evenodd"
         d="M 22.848,10.5 9.184,36 H 2.433 L 8.203,25.178 0,10.5 h 6.987 l 4.555,8.715 4.418,-8.715 h 6.9 z"
         fill="#0d7350"
         id="path1-7"
         style="fill:#ffffff" /><path
         fill-rule="evenodd"
         clip-rule="evenodd"
         d="m 46.118,12.148 a 8.738,8.738 0 0 1 -2.32,6.075 c -4.468,4.103 -11.344,4.103 -15.812,0 a 9.346,9.346 0 0 1 -2.221,-7.55 L 18.603,5.405 H 28.755 A 10.833,10.833 0 0 1 36.09,3.037 c 2.532,-0.1 5.002,0.744 6.95,2.368 h 10.152 l -7.173,5.28 c 0.074,0.484 0.112,0.98 0.112,1.476 z m -6.267,0 a 3.944,3.944 0 0 0 -3.972,-3.942 3.957,3.957 0 0 0 -3.015,1.401 3.955,3.955 0 0 0 0,5.12 3.76,3.76 0 0 0 3.028,1.388 3.92,3.92 0 0 0 3.946,-3.892 v -0.075 z m 27.428,15.335 h -6.044 v -1.871 a 6.027,6.027 0 0 1 -1.738,1.574 7.134,7.134 0 0 1 -3.487,0.868 8.333,8.333 0 0 1 -5.622,-2.17 8.75,8.75 0 0 1 -2.942,-6.88 8.724,8.724 0 0 1 3.004,-6.954 8.177,8.177 0 0 1 5.498,-2.07 7.53,7.53 0 0 1 3.4,0.793 c 0.708,0.372 1.34,0.855 1.874,1.438 V 0 h 6.044 v 27.483 z m -5.858,-8.466 a 3.848,3.848 0 0 0 -3.823,-3.868 h -0.025 a 3.678,3.678 0 0 0 -2.929,1.351 3.863,3.863 0 0 0 0,5.008 3.608,3.608 0 0 0 2.93,1.352 c 2.11,0.012 3.834,-1.674 3.847,-3.782 v -0.086 0.024 z m 26.919,8.467 h -6.044 v -1.872 a 6.028,6.028 0 0 1 -1.738,1.574 7.134,7.134 0 0 1 -3.487,0.868 8.333,8.333 0 0 1 -5.622,-2.17 9.515,9.515 0 0 1 -0.286,-13.475 c 0.112,-0.124 0.236,-0.235 0.36,-0.36 a 8.177,8.177 0 0 1 5.498,-2.07 c 1.18,0 2.333,0.249 3.4,0.744 0.708,0.372 1.341,0.856 1.875,1.438 v -1.673 h 6.044 z m -5.858,-8.492 c 0,-2.12 -1.7,-3.83 -3.81,-3.843 h -0.037 a 3.636,3.636 0 0 0 -2.917,1.351 3.83,3.83 0 0 0 0,4.984 3.637,3.637 0 0 0 2.917,1.351 3.806,3.806 0 0 0 3.847,-3.756 z"
         fill="#0d7350"
         id="path2-6"
         style="fill:#ffffff" /><path
         fill-rule="evenodd"
         clip-rule="evenodd"
         d="m 110.071,19.03 a 8.732,8.732 0 0 1 -3.016,6.954 8.153,8.153 0 0 1 -5.498,2.07 7.528,7.528 0 0 1 -3.4,-0.793 6.865,6.865 0 0 1 -1.874,-1.438 V 36 H 90.239 V 10.5 h 6.044 v 1.91 a 5.554,5.554 0 0 1 1.737,-1.575 7.133,7.133 0 0 1 3.488,-0.868 c 2.085,0 4.083,0.769 5.622,2.17 a 8.75,8.75 0 0 1 2.941,6.88 v 0.012 z m -6.28,-0.013 a 3.766,3.766 0 0 0 -0.906,-2.504 3.646,3.646 0 0 0 -2.941,-1.352 3.864,3.864 0 0 0 -3.86,3.868 3.854,3.854 0 0 0 3.86,3.855 3.638,3.638 0 0 0 2.917,-1.35 c 0.608,-0.695 0.93,-1.587 0.93,-2.505 z m 13.565,8.466 h -6.044 V 0 h 6.044 z m 19.969,-6.186 a 6.12,6.12 0 0 1 -4.493,6.298 14.237,14.237 0 0 1 -4.567,0.645 c -3.537,0 -6.069,-0.868 -7.62,-2.604 A 6.296,6.296 0 0 1 119.18,21.298 V 10.5 h 6.044 v 9.632 a 3.21,3.21 0 0 0 0.757,2.343 3.559,3.559 0 0 0 4.518,0 3.158,3.158 0 0 0 0.757,-2.343 V 10.5 H 137.3 V 21.297 Z M 153,21.769 a 5.62,5.62 0 0 1 -1.948,4.413 8.915,8.915 0 0 1 -6.156,1.934 13.282,13.282 0 0 1 -6.801,-1.947 l 2.172,-4.24 a 9.053,9.053 0 0 0 4.803,1.65 c 1.253,0 1.886,-0.434 1.886,-1.29 0,-0.446 -0.248,-0.855 -0.658,-1.041 a 8.537,8.537 0 0 0 -1.899,-0.558 16.452,16.452 0 0 1 -2.171,-0.57 4.135,4.135 0 0 1 -2.47,-2.232 4.902,4.902 0 0 1 -0.348,-1.97 5.643,5.643 0 0 1 1.514,-3.893 c 1.316,-1.426 3.326,-2.132 6.057,-2.132 1.899,0 3.773,0.371 5.523,1.09 l -2.023,3.868 a 7.173,7.173 0 0 0 -3.227,-0.868 c -1.204,0 -1.812,0.422 -1.812,1.277 0,0.385 0.248,0.695 0.732,0.943 0.633,0.223 1.278,0.384 1.936,0.495 a 6.905,6.905 0 0 1 3.475,1.575 4.655,4.655 0 0 1 1.403,3.508 z M 42.867,27.955 H 28.917 V 24.21 h 13.95 v 3.744 z"
         fill="#676766"
         id="path3-6"
         style="fill:#ffffff" /></g></g></svg>
